<?xml version="1.0" encoding="utf-8"?>
<!-- Generator: Adobe Illustrator 21.1.0, SVG Export Plug-In . SVG Version: 6.00 Build 0)  -->
<svg version="1.1" id="Layer_1" xmlns="http://www.w3.org/2000/svg" x="0px"
     y="0px"
     viewBox="0 0 186.1 279.1" style="enable-background:new 0 0 186.1 279.1;" xml:space="preserve">
<style type="text/css">
	.st0{opacity:0.6;fill:#1B639E;enable-background:new    ;}
	.st1{fill:#1976D2;}
</style>
    <g>
	<title>Logo</title>
        <path class="st0"
              d="M0,232.6v16.5c0,16.5,13.4,30,30,30l0,0h33c16.5,0,30-13.4,30-30l0,0V186H46.6C46.6,186,0,186,0,232.6z"/>
        <path class="st1" d="M156.1,0h-126c-16.5,0-30,13.4-30,30L0,232.6C0,186,46.6,186,46.6,186h109.5c16.5,0,30-13.4,30-30l0,0V30
		C186.1,13.4,172.6,0,156.1,0z"/>
</g>
</svg>
